<svg width="44" height="43" xmlns="http://www.w3.org/2000/svg" xmlns:xlink="http://www.w3.org/1999/xlink" overflow="hidden">
<defs>
	<clipPath id="clip0"><rect x="15" y="201" width="44" height="43"/></clipPath>
</defs>
<g clip-path="url(#clip0)" transform="translate(-15 -201)">
<path d="M34.4896 35.3854 34.4896 8.51042C34.4896 5.8919 27.7973 4.47917 21.5 4.47917 15.2027 4.47917 8.51042 5.8919 8.51042 8.51042L8.51042 35.3854C8.51042 38.0039 15.2027 39.4167 21.5 39.4167 27.7973 39.4167 34.4896 38.0039 34.4896 35.3854ZM21.5 5.375C28.4217 5.375 33.5938 7.03229 33.5938 8.51042 33.5938 9.98854 28.4217 11.6458 21.5 11.6458 14.5783 11.6458 9.40625 9.98854 9.40625 8.51042 9.40625 7.03229 14.5783 5.375 21.5 5.375ZM9.40625 10.0602C11.4349 11.6817 16.5877 12.5417 21.5 12.5417 26.4123 12.5417 31.5651 11.6817 33.5938 10.0602L33.5938 17.4688C33.5938 18.9469 28.4217 20.6042 21.5 20.6042 14.5783 20.6042 9.40625 18.9469 9.40625 17.4688ZM9.40625 19.0185C11.4349 20.64 16.5877 21.5 21.5 21.5 26.4123 21.5 31.5651 20.64 33.5938 19.0185L33.5938 26.4271C33.5938 27.9052 28.4217 29.5625 21.5 29.5625 14.5783 29.5625 9.40625 27.9052 9.40625 26.4271ZM9.40625 35.3854 9.40625 27.9769C11.4349 29.5983 16.5877 30.4583 21.5 30.4583 26.4123 30.4583 31.5651 29.5983 33.5938 27.9769L33.5938 35.3854C33.5938 36.8635 28.4217 38.5208 21.5 38.5208 14.5783 38.5208 9.40625 36.8635 9.40625 35.3854Z" 
fill="#FFFFFF" transform="matrix(1.02326 0 0 1 15 201)"/>
<path d="M31.3542 16.125C31.3542 16.6198 30.9531 17.0208 30.4583 17.0208 29.9636 17.0208 29.5625 16.6198 29.5625 16.125 29.5625 15.6302 29.9636 15.2292 30.4583 15.2292 30.9531 15.2292 31.3542 15.6302 31.3542 16.125Z" fill="#FFFFFF" transform="matrix(1.02326 0 0 1 15 201)"/>
<path d="M31.3542 25.0833C31.3542 25.5781 30.9531 25.9792 30.4583 25.9792 29.9636 25.9792 29.5625 25.5781 29.5625 25.0833 29.5625 24.5886 29.9636 24.1875 30.4583 24.1875 30.9531 24.1875 31.3542 24.5886 31.3542 25.0833Z" fill="#FFFFFF" transform="matrix(1.02326 0 0 1 15 201)"/>
<path d="M31.3542 34.0417C31.3542 34.5364 30.9531 34.9375 30.4583 34.9375 29.9636 34.9375 29.5625 34.5364 29.5625 34.0417 29.5625 33.5469 29.9636 33.1458 30.4583 33.1458 30.9531 33.1458 31.3542 33.5469 31.3542 34.0417Z" fill="#FFFFFF" transform="matrix(1.02326 0 0 1 15 201)"/>
</g>
</svg>