<svg width="50" height="44" viewBox="0 0 50 44" fill="none" xmlns="http://www.w3.org/2000/svg">
<path d="M45.9699 0.000459762H3.7275C1.67184 0.000459762 0 1.77419 0 3.95539V30.9791C0 33.1602 1.67173 34.934 3.7275 34.934H19.879V40.8658L13.0455 40.8654C12.3595 40.8654 11.8031 41.4562 11.8031 42.1835C11.8031 42.9113 12.36 43.5016 13.0455 43.5016H36.6515C37.3375 43.5016 37.8938 42.9108 37.8938 42.1835C37.8938 41.4557 37.337 40.8654 36.6515 40.8654H29.818V34.9336H45.9695C48.0251 34.9336 49.697 33.1599 49.697 30.9787L49.6965 3.95493C49.6965 1.77384 48.0248 0 45.969 0L45.9699 0.000459762ZM27.3336 40.8656H22.3637V34.9338H27.3336V40.8656ZM47.2123 30.9789C47.2123 31.7058 46.6551 32.297 45.97 32.297L3.72761 32.2974C3.04252 32.2974 2.48529 31.7062 2.48529 30.9793L2.48486 3.95561C2.48486 3.22872 3.04211 2.6375 3.72717 2.6375H45.9696C46.6547 2.6375 47.2119 3.22875 47.2119 3.95561L47.2123 30.9789ZM35.4093 30.32C35.4093 30.6837 35.1316 30.9793 34.7879 30.9793L4.34853 30.9789C4.0049 30.9789 3.72714 30.6837 3.72714 30.3196L3.72757 4.61408C3.72757 4.25041 4.00533 3.95477 4.34896 3.95477H9.93965C10.2833 3.95477 10.561 4.24994 10.561 4.61408C10.561 4.97775 10.2833 5.27338 9.93965 5.27338H4.96984V29.6606H34.788C35.1312 29.6606 35.409 29.9558 35.409 30.3199L35.4093 30.32ZM45.9698 4.61454V30.32C45.9698 30.6837 45.6921 30.9793 45.3484 30.9793H39.7577C39.4141 30.9793 39.1363 30.6842 39.1363 30.32C39.1363 29.9564 39.4141 29.6607 39.7577 29.6607H44.7275V5.27346H14.9094C14.5657 5.27346 14.288 4.9783 14.288 4.61416C14.288 4.25049 14.5657 3.95486 14.9094 3.95486H45.3488C45.6928 3.95532 45.9701 4.25048 45.9701 4.61416L45.9698 4.61454ZM11.8031 4.61454C11.8031 4.25087 12.0813 3.95523 12.4245 3.95523C12.7673 3.95523 13.0459 4.2504 13.0459 4.61454C13.0459 4.9782 12.7677 5.27384 12.4245 5.27384C12.0818 5.27384 11.8031 4.97868 11.8031 4.61454ZM37.8941 30.32C37.8941 30.6837 37.6159 30.9793 37.2727 30.9793C36.9299 30.9793 36.6513 30.6842 36.6513 30.32C36.6513 29.9564 36.9295 29.6607 37.2727 29.6607C37.6154 29.6607 37.8941 29.9559 37.8941 30.32Z" fill="#464646"/>
</svg>
