<svg width="48" height="51" viewBox="0 0 48 51" fill="none" xmlns="http://www.w3.org/2000/svg">
<path d="M48.0004 50.9293H0V29.3908L13.5001 19.948V28.0119L25.0005 19.8418V27.9057L36.5008 19.8418V27.9057L48.0004 19.8418V50.9293ZM1.99973 48.8074H45.9998L46.0001 23.873L34.4997 31.9369V23.873L22.9994 31.9369V23.873L11.499 31.9369V23.873L1.99921 30.4512L1.99973 48.8074Z" fill="#464646"/>
<path d="M39.4998 25.9944L37.1999 2.12137H33.2999L31.0998 25.2523L29.0999 25.0398L31.4999 0H38.9999L41.5001 25.7829L39.4998 25.9944Z" fill="#464646"/>
<path d="M5.59937 37.2422H7.59927V40.1069H5.59937V37.2422Z" fill="#464646"/>
<path d="M10.6997 37.2422H12.6996V40.1069H10.6997V37.2422Z" fill="#464646"/>
<path d="M15.8999 37.2422H17.8998V40.1069H15.8999V37.2422Z" fill="#464646"/>
<path d="M21.1003 37.2422H23.1002V40.1069H21.1003V37.2422Z" fill="#464646"/>
<path d="M26.2002 37.2422H28.2001V40.1069H26.2002V37.2422Z" fill="#464646"/>
<path d="M31.3999 37.2422H33.3998V40.1069H31.3999V37.2422Z" fill="#464646"/>
<path d="M36.4998 37.2422H38.4997V40.1069H36.4998V37.2422Z" fill="#464646"/>
</svg>
