<svg width="21" height="17" viewBox="0 0 21 17" fill="none" xmlns="http://www.w3.org/2000/svg">
<path d="M18.0753 9.06156C17.6175 9.06156 17.2462 9.45526 17.2462 9.9412L17.2464 14.9775C17.2464 15.1095 17.1449 15.217 17.0207 15.217H1.88392C1.75935 15.217 1.65791 15.1093 1.65791 14.9775V3.22565C1.65791 3.09348 1.75935 2.98584 1.88392 2.98584H12.3793C12.8371 2.98584 13.2083 2.59214 13.2083 2.1062C13.2083 1.62048 12.8373 1.22656 12.3793 1.22656L1.88392 1.22691C0.845086 1.22691 0 2.12352 0 3.2256V14.9775C0 16.0797 0.845043 16.976 1.88392 16.976H17.0207C18.0595 16.976 18.9043 16.0795 18.9043 14.9775V9.94115C18.9041 9.45543 18.533 9.06169 18.0751 9.06169L18.0753 9.06156Z" fill="#FEE600"/>
<path d="M20.1399 4.95439L15.3061 0.102949C15.203 -0.000299338 15.0516 -0.0286961 14.9214 0.0305524C14.7909 0.090151 14.7067 0.226356 14.7067 0.376934V3.23983C6.88431 3.47875 5.8887 11.5991 5.87939 11.6822C5.85973 11.8601 5.96068 12.0286 6.12126 12.0845C6.15778 12.0973 6.19544 12.1034 6.23212 12.1034C6.35702 12.1034 6.4763 12.0333 6.54091 11.9129C8.76796 7.76191 12.6207 7.31406 14.1738 7.31406C14.3689 7.31406 14.5343 7.32089 14.6628 7.32913V10.2189C14.6628 10.3701 14.7479 10.5069 14.8791 10.5659C15.0102 10.6247 15.1621 10.5954 15.2647 10.4902L20.1421 5.50011C20.2119 5.42877 20.2513 5.3299 20.2508 5.22701C20.2501 5.12358 20.21 5.02524 20.1398 4.95443L20.1399 4.95439Z" fill="#FEE600"/>
</svg>
