<svg width="58" height="32" viewBox="0 0 58 32" fill="none" xmlns="http://www.w3.org/2000/svg">
<path d="M1.36417 27.49H2.92149C3.531 29.9784 5.64855 31.8304 8.18252 31.8304C10.716 31.8304 12.834 29.9784 13.4436 27.49H13.8307C14.4402 29.9784 16.5578 31.8304 19.0918 31.8304C21.6253 31.8304 23.7433 29.9784 24.3528 27.49H41.1018C41.7113 29.9784 43.8274 31.8304 46.3628 31.8304C48.8977 31.8304 51.0143 29.9784 51.6239 27.49H55.9078C56.662 27.49 57.2715 26.8419 57.2715 26.043V17.3622C57.2715 16.5634 56.662 15.9152 55.9078 15.9152H50.4532V10.1278C50.4532 9.32901 49.8437 8.68085 49.0894 8.68085H40.9078V1.44697C40.9078 0.648162 40.2983 0 39.544 0L1.36376 0.000968845C0.610888 0.000968845 0 0.649131 0 1.44794V26.0433C0 26.8416 0.610888 27.4897 1.36376 27.4897L1.36417 27.49ZM46.3632 28.937C44.8593 28.937 43.6362 27.6392 43.6362 26.0435C43.6362 24.4479 44.8593 23.1501 46.3632 23.1501C47.8671 23.1501 49.0903 24.4479 49.0903 26.0435C49.0903 27.6392 47.8671 28.937 46.3632 28.937ZM40.9086 17.3627V11.5753H47.727V17.3627C47.727 18.1615 48.3365 18.8097 49.0908 18.8097H54.5453V24.5971H51.6247C51.0152 22.1086 48.8991 20.2566 46.3637 20.2566C43.8288 20.2566 41.7122 22.1086 41.1027 24.5971L40.9086 24.5966L40.9086 17.3627ZM8.18206 28.937C6.67815 28.937 5.455 27.6392 5.455 26.0435C5.455 24.4479 6.67815 23.1501 8.18206 23.1501C9.68596 23.1501 10.9091 24.4479 10.9091 26.0435C10.9091 27.6392 9.68596 28.937 8.18206 28.937ZM19.0908 28.937C17.5869 28.937 16.3637 27.6392 16.3637 26.0435C16.3637 24.4479 17.5869 23.1501 19.0908 23.1501C20.5947 23.1501 21.8178 24.4479 21.8178 26.0435C21.8183 27.6392 20.5951 28.937 19.0908 28.937ZM2.72747 2.89444H38.1809V15.9157H2.72747V2.89444ZM2.72747 18.8089H38.1809V24.5963H24.3516C23.7421 22.1079 21.6245 20.2559 19.0905 20.2559C16.557 20.2559 14.439 22.1079 13.8295 24.5963H13.4423C12.8328 22.1079 10.7153 20.2559 8.1813 20.2559C5.64779 20.2559 3.5298 22.1079 2.92026 24.5963H2.72714L2.72747 18.8089Z" fill="#464646"/>
</svg>
